<svg xmlns="http://www.w3.org/2000/svg" width="144" height="144" viewBox="0 0 144 144">
	<circle fill="#86ba90" cx="72" cy="72" r="72"/>
	<path fill="#fff" d="M41.41,42.73H49V68.44H60Q60.83,56.25,68,49a24.08,24.08,0,0,1,17.81-7.24,24.31,24.31,0,0,1,18.57,7.89q7.36,7.89,7.37,21.4,0,14.07-7.35,22T85.63,101A23.66,23.66,0,0,1,68.3,94.12q-6.93-6.86-8.14-19H49V100H41.41ZM67.62,71.64q0,10.86,5,16.86a16.27,16.27,0,0,0,13.12,6,16.31,16.31,0,0,0,13.28-6q5-6,5-17.31,0-10.69-4.88-16.85a15.93,15.93,0,0,0-13.2-6.16,16.12,16.12,0,0,0-13.38,6.23Q67.62,60.63,67.62,71.64Z"/>
</svg>