<svg xmlns="http://www.w3.org/2000/svg" width="144" height="144" viewBox="0 0 144 144">
	<circle fill="#218380" cx="72" cy="72" r="72"/>
	<path fill="#fff" d="M51.52,42.73H88.67v6.76H59.1V67.15H72.77a40.55,40.55,0,0,1,12,1.44A13.39,13.39,0,0,1,92,74a16.28,16.28,0,0,1,2.7,9.32,17.47,17.47,0,0,1-1.94,8.1A15.53,15.53,0,0,1,87,97.62Q83.17,100,74,100H51.52ZM59.1,93.55H74.26c4.09,0,7.15-.83,9.2-2.5s3.06-4.16,3.06-7.5a9.74,9.74,0,0,0-1.75-5.93,8.38,8.38,0,0,0-4.89-3.17,50,50,0,0,0-10.66-.78H59.1Z"/>
</svg>