<svg xmlns="http://www.w3.org/2000/svg" width="144" height="144" viewBox="0 0 144 144">
	<circle fill="#7f7eff" cx="72" cy="72" r="72"/>
	<path fill="#fff" d="M89,79.92l7.58,1.92Q94.23,91.17,88,96.07A23.64,23.64,0,0,1,72.9,101q-9.26,0-15.06-3.77A23.6,23.6,0,0,1,49,86.29a38.93,38.93,0,0,1-3-15.35A33.73,33.73,0,0,1,49.4,55.33a23.45,23.45,0,0,1,9.73-10.12A28.44,28.44,0,0,1,73,41.76a23.53,23.53,0,0,1,14.45,4.37,22.67,22.67,0,0,1,8.16,12.31L88.17,60.2q-2-6.26-5.78-9.11a15.41,15.41,0,0,0-9.53-2.85,18.54,18.54,0,0,0-11,3.17,16.76,16.76,0,0,0-6.23,8.49,34.45,34.45,0,0,0-1.79,11,34.89,34.89,0,0,0,2.13,12.75,15.78,15.78,0,0,0,6.62,8.15,18.59,18.59,0,0,0,9.72,2.69,16.27,16.27,0,0,0,10.78-3.67Q87.48,87.15,89,79.92Z"/>
</svg>