<svg xmlns="http://www.w3.org/2000/svg" width="144" height="144" viewBox="0 0 144 144">
	<circle fill="#679436" cx="72" cy="72" r="72"/>
	<path fill="#fff" d="M50.86,100V42.73H72.34a26.55,26.55,0,0,1,10.53,1.74,13.62,13.62,0,0,1,6.21,5.35,14.1,14.1,0,0,1,2.25,7.56,13.07,13.07,0,0,1-2,6.92,14.28,14.28,0,0,1-6,5.23,15,15,0,0,1,8,5.2A13.91,13.91,0,0,1,94.1,83.4a16.65,16.65,0,0,1-1.7,7.48,14.45,14.45,0,0,1-4.2,5.33A17.28,17.28,0,0,1,81.93,99a38,38,0,0,1-9.23,1Zm7.58-33.2H70.82a27.29,27.29,0,0,0,7.23-.67,8,8,0,0,0,4.35-2.85,8.19,8.19,0,0,0,1.47-5,9.24,9.24,0,0,0-1.37-5,7,7,0,0,0-3.91-3,32.75,32.75,0,0,0-8.71-.8H58.44Zm0,26.44H72.7A33.21,33.21,0,0,0,77.85,93a12.34,12.34,0,0,0,4.38-1.56,8.32,8.32,0,0,0,2.89-3.19,10,10,0,0,0,1.13-4.82,9.55,9.55,0,0,0-1.64-5.57,8.68,8.68,0,0,0-4.55-3.32,28.12,28.12,0,0,0-8.38-1H58.44Z"/>
</svg>