<svg xmlns="http://www.w3.org/2000/svg" width="144" height="144" viewBox="0 0 144 144">
	<circle fill="#598181" cx="72" cy="72" r="72"/>
	<path fill="#fff" d="M51.29,42.73h7.58V67.81c3.46,0,5.9-.67,7.3-2s3.21-4.56,5.39-9.67a53.57,53.57,0,0,1,3.93-8,12.24,12.24,0,0,1,4.39-3.9,12.69,12.69,0,0,1,6.29-1.58c2.92,0,4.46,0,4.61.07v6.57l-1.52,0-1.53,0c-2.42,0-4.21.58-5.39,1.76s-2.56,3.67-4.1,7.5q-2.89,7.26-4.88,9.16a15.11,15.11,0,0,1-4.77,3q5.55,1.53,10.94,10.24L91.33,100H81.91L72.34,84.45q-3.95-6.44-6.6-8.84a9.81,9.81,0,0,0-6.87-2.41V100H51.29Z"/>
</svg>