<svg xmlns="http://www.w3.org/2000/svg" width="144" height="144" viewBox="0 0 144 144">
	<circle fill="#564256" cx="72" cy="72" r="72"/>
	<path fill="#fff" d="M51.05,83.83,58.27,82a18.54,18.54,0,0,0,4.4,8.36,11.83,11.83,0,0,0,9.47,4.18q6,0,9.49-3.08A9.63,9.63,0,0,0,85.11,84a9,9,0,0,0-3.67-7.52q-3.68-2.81-10-2.8H67.8V67a40.42,40.42,0,0,0,8-.6,9,9,0,0,0,4.9-3.09,8.42,8.42,0,0,0,2.13-5.64,8.74,8.74,0,0,0-2.91-6.53,10.92,10.92,0,0,0-7.87-2.77,12.44,12.44,0,0,0-7.4,2.17,11.09,11.09,0,0,0-4.24,5.74,19.18,19.18,0,0,0-1.17,5.33L52,60q2.7-18.24,20.16-18.24,8.4,0,13.32,4.67a14.59,14.59,0,0,1,4.92,10.91q0,8-7.58,12.43A14.1,14.1,0,0,1,93.08,83.63,15.77,15.77,0,0,1,87.36,96q-5.73,5-15.18,5Q55.94,101,51.05,83.83Z"/>
</svg>