<svg xmlns="http://www.w3.org/2000/svg" width="144" height="144" viewBox="0 0 144 144">
	<circle fill="#dfa06e" cx="72" cy="72" r="72"/>
	<path fill="#fff" d="M83.91,100V74.57H75.12a23,23,0,0,0-4.22.27,11.47,11.47,0,0,0-3.46,1.53,17.29,17.29,0,0,0-3.85,3.83q-2.15,2.73-5.46,7.89L50.55,100H41L51,84.41a39.29,39.29,0,0,1,6.29-7.61A19.31,19.31,0,0,1,61.84,74q-8.25-1.14-12.19-5.32A14.39,14.39,0,0,1,45.7,58.36a16.23,16.23,0,0,1,2.39-8.63,12.68,12.68,0,0,1,6.36-5.45q4-1.55,11.64-1.55H91.48V100Zm0-50.94H65.78c-4.24,0-7.35.88-9.32,2.62a8.54,8.54,0,0,0-2.94,6.68A9.28,9.28,0,0,0,55,63.5a8.61,8.61,0,0,0,4.45,3.43A24.34,24.34,0,0,0,67.62,68H83.91Z"/>
</svg>