<svg xmlns="http://www.w3.org/2000/svg" width="144" height="144" viewBox="0 0 144 144">
	<circle fill="#fc814a" cx="72" cy="72" r="72"/>
	<path fill="#fff" d="M75.82,42.73V67.81q5.58,0,7.68-2c1.39-1.37,3.17-4.57,5.33-9.63a53.77,53.77,0,0,1,3.92-8,12.27,12.27,0,0,1,4.4-3.9,12.6,12.6,0,0,1,6.25-1.58c2.47,0,4,0,4.61.07v6.57l-1.49,0-1.52,0c-2.42,0-4.22.58-5.39,1.76s-2.57,3.67-4.1,7.5Q93,64.73,91.17,67a13.51,13.51,0,0,1-5.31,3.73q5.63,1.58,10.9,10.24L108.55,100H99.18L89.61,84.45a48.26,48.26,0,0,0-6.45-8.71q-2.61-2.53-7.34-2.54V100H68.05V73.2a11.36,11.36,0,0,0-6.62,2q-2.88,2-6.7,8.49l-.47.78L44.69,100H35.27l11.8-19.06Q52.46,72.22,58,70.7a13.76,13.76,0,0,1-5-3.34Q51,65.28,48.32,58.52q-2.46-6.14-4.22-7.7a7.67,7.67,0,0,0-5.23-1.56l-3,.08V42.77c.29-.05,1.74-.07,4.38-.07a13.08,13.08,0,0,1,6.5,1.54A12.42,12.42,0,0,1,51,48.11a54.88,54.88,0,0,1,4,8q3.28,7.69,5.33,9.65t7.68,2V42.73Z"/>
</svg>