<svg xmlns="http://www.w3.org/2000/svg" width="144" height="144" viewBox="0 0 144 144">
	<circle fill="#fc814a" cx="72" cy="72" r="72"/>
	<path fill="#fff" d="M53.17,100V42.73h21.6a52.47,52.47,0,0,1,8.71.55A17.16,17.16,0,0,1,90.55,46a13.9,13.9,0,0,1,4.59,5.52,17.56,17.56,0,0,1,1.74,7.82,17.59,17.59,0,0,1-4.65,12.36q-4.65,5.06-16.79,5.06H60.75V100Zm7.58-30h14.8Q82.9,70,86,67.23a9.75,9.75,0,0,0,3.09-7.7,10.35,10.35,0,0,0-1.82-6.15A8.47,8.47,0,0,0,82.47,50a32.25,32.25,0,0,0-7.07-.51H60.75Z"/>
</svg>