<svg xmlns="http://www.w3.org/2000/svg" width="144" height="144" viewBox="0 0 144 144">
	<circle fill="#9b6a6c" cx="72" cy="72" r="72"/>
	<path fill="#fff" d="M67.88,49.61V42.27H75v7.34q11,.59,17.27,6.58a19.7,19.7,0,0,1,6.33,14.9A20.12,20.12,0,0,1,92.45,85.9Q86.32,92,75,92.62V100h-7.1V92.62Q57.71,92.23,51,86.43T44.2,71.09q0-9.57,6.74-15.31T67.88,49.61Zm0,6.52q-7.08.32-11.45,4.18T52.05,71.09q0,6.84,4.32,10.75t11.51,4.21Zm7.1,0v30q7.35-.34,11.57-4.25t4.22-10.75c0-4.47-1.39-8-4.14-10.64S80,56.38,75,56.09Z"/>
</svg>