<svg xmlns="http://www.w3.org/2000/svg" width="144" height="144" viewBox="0 0 144 144">
	<circle fill="#00bd9d" cx="72" cy="72" r="72"/>
	<path fill="#fff" d="M43.87,72.11q0-14.26,7.65-22.32t19.77-8.07a27.4,27.4,0,0,1,14.3,3.79,24.72,24.72,0,0,1,9.7,10.56,34.31,34.31,0,0,1,3.34,15.38A33.77,33.77,0,0,1,95.12,87a24.05,24.05,0,0,1-10,10.41A28.46,28.46,0,0,1,71.25,101,27.1,27.1,0,0,1,56.8,97.07a25.12,25.12,0,0,1-9.65-10.66A32.3,32.3,0,0,1,43.87,72.11Zm7.81.12q0,10.35,5.57,16.31a18.3,18.3,0,0,0,14,5.95,18.27,18.27,0,0,0,14.08-6q5.53-6,5.53-17.07A29.45,29.45,0,0,0,88.46,59.2a18.18,18.18,0,0,0-6.92-8.09,18.77,18.77,0,0,0-10.21-2.87,19.36,19.36,0,0,0-13.85,5.53Q51.68,59.31,51.68,72.23Z"/>
</svg>